<?xml version="1.0" encoding="utf-8"?>
<!-- Generator: Adobe Illustrator 22.0.1, SVG Export Plug-In . SVG Version: 6.00 Build 0)  -->
<svg version="1.1" id="Capa_1" xmlns="http://www.w3.org/2000/svg" xmlns:xlink="http://www.w3.org/1999/xlink" x="0px" y="0px"
	 viewBox="0 0 645.9 102.3" style="enable-background:new 0 0 645.9 102.3;" xml:space="preserve">
<style type="text/css">
	.st0{fill:#FFFFFF;}
	.st1{fill:#E6B42F;}
</style>
<g>
	<g>
		<g>
			<polygon class="st0" points="223.7,65.3 223.7,65.3 223.7,65.3 			"/>
			<path class="st0" d="M252.6,54c0.7,0,1.4,0,1.9-0.1c0.5-0.1,0.9-0.1,1.3-0.4h0l0,0c0.4-0.2,0.6-0.6,0.8-1
				c0.1-0.4,0.2-0.8,0.2-1.3c0-1-0.2-2.1-0.5-3.5l0,0l0,0c-1.1-3.9-3-7.1-5.7-9.6c-3.6-3.3-8-5-12.9-5c-3.4,0-6.6,0.9-9.6,2.6
				c-2.7,1.5-4.8,3.6-6.5,6.3c-2,3.1-3,6.6-3,10.3c0,5,1.8,9.4,5.2,13.1c3.6,4,8.3,6,13.8,6c5.4,0,10.1-1.9,13.8-5.8
				c2.2-2.3,3.9-5.3,4.9-9l0.3-1.1h-1.1h-3.2L252,56c-1.2,4.2-3.5,7.2-7,9.2c-2.3,1.3-4.8,2-7.4,2c-2.6,0-5-0.7-7.3-2l0,0
				c-2.2-1.2-4-2.9-5.4-5.1c-1.2-1.9-1.8-3.9-2.1-6.1H252.6z M252.3,49.9h-29.4c0.5-3.5,2-6.4,4.6-8.8c2.9-2.6,6.2-3.9,10-3.9
				c2.6,0,5.1,0.7,7.4,2l0,0c2.7,1.5,4.7,3.7,6.1,6.5l0,0v0C251.7,46.9,252.1,48.3,252.3,49.9z"/>
		</g>
		<path class="st0" d="M276.7,33.8h-0.1c-4.2,0-7.6,1.2-9.8,3.6c-2.2,2.4-3.3,6-3.3,10.5c0,0.3,0,0.6,0,1v21.7h4.2V49.1
			c0-4.2,0.8-7.1,2-8.7c1.3-1.5,3.5-2.5,7.1-2.6l0.8,0v-4.1L276.7,33.8z"/>
		<path class="st0" d="M41.3,36.3v-3.2h-0.8c-2.4,0-4.1,0-5.2,0.1h0h0c-5.5,0.3-9.9,2.2-13.2,5.8l0,0l0,0c-3.3,3.5-5,7.8-5,12.6
			c0,3.8,1.1,7.2,3.2,10.3l0,0c2.6,3.7,6,6.1,10,7.1c2.4,0.6,5.8,0.9,10.2,0.9h0.8v-4.1l-0.9,0c-1,0-1.8,0-2.2,0
			c-3.6,0-6.6-0.5-8.8-1.4c-2.2-0.9-4.1-2.4-5.6-4.6l0,0c-1.7-2.4-2.6-5.1-2.6-8.2c0-3.4,1-6.3,3-8.9l0,0h0c1.6-2.1,3.7-3.6,6.1-4.4
			h0h0c1.9-0.7,4.4-1,7.5-1c0.8,0,1.6,0,2.5,0h0.8V36.3"/>
		<g>
			<polygon class="st0" points="51.7,37.8 51.7,37.8 51.7,37.8 			"/>
			<path class="st0" d="M78.3,39.2c-3.8-4.1-8.5-6.2-14-6.2h0h0c-4.8,0.1-9,1.7-12.5,4.7l0,0c-4.3,3.7-6.5,8.6-6.5,14.4
				c0,3.4,0.8,6.6,2.5,9.5l0,0c1.8,3.2,4.3,5.6,7.5,7.3h0c2.8,1.5,5.7,2.3,8.7,2.3c4.9,0,9.2-1.6,12.8-4.7c4.3-3.7,6.5-8.5,6.5-14.2
				C83.2,47.2,81.6,42.8,78.3,39.2z M75.2,62.1L75.2,62.1c-3,3.4-6.7,5-11.2,5.1c-3.6,0-6.7-1.3-9.6-3.9c-3.3-3-4.9-6.7-4.9-11.1
				c0-3.8,1.2-7.1,3.8-9.9c3-3.4,6.6-5,10.9-5c3.9,0.1,7.1,1.4,9.8,3.9c3.3,3.1,4.9,6.8,4.9,11.2C78.9,56,77.7,59.2,75.2,62.1
				L75.2,62.1z"/>
		</g>
		<path class="st0" d="M131.8,42.2c-0.3-1.4-0.8-2.7-1.6-3.9l0,0l0,0c-1-1.6-2.4-2.8-4.2-3.8c-1.7-0.9-3.6-1.4-5.4-1.4
			c-2.6,0-5,0.8-7.1,2.4v0c0,0,0,0,0,0c0,0,0,0,0,0l0,0c-0.9,0.7-1.8,1.5-2.6,2.6c-0.9-1.4-2.1-2.5-3.6-3.4c-1.9-1.1-4-1.7-6.2-1.7
			c-3.6,0-6.6,1.4-8.8,4.2l0,0c-1,1.3-1.8,2.7-2.2,4.2h0c-0.4,1.5-0.6,3.5-0.6,5.9v23.2h4.2V48.5c0-2.5,0.1-4.3,0.3-5.3
			c0.2-1,0.6-1.9,1.1-2.8c0.7-1,1.5-1.8,2.7-2.4c1.1-0.6,2.2-0.9,3.4-0.9c1.1,0,2.2,0.3,3.4,0.9c1.1,0.6,1.9,1.3,2.6,2.2
			c1,1.5,1.6,4.1,1.6,7.7v22.6h4.2V48.1c0-3.2,0.5-5.7,1.3-7.3l0,0l0,0c0.6-1.1,1.4-2,2.6-2.7c1.2-0.7,2.3-1,3.6-1
			c1.4,0,2.7,0.4,3.9,1.2c1.3,0.8,2.1,1.8,2.6,3.1l0,0c0.6,1.4,0.9,3.6,0.9,6.6v22.5h4.2V48.1C132.2,45.5,132,43.6,131.8,42.2z"/>
		<g>
			<polygon class="st0" points="173.2,39.2 173.2,39.2 173.2,39.2 			"/>
			<polygon class="st0" points="142.9,42.3 142.9,42.3 142.9,42.3 			"/>
			<path class="st0" d="M173.2,39.2c-3.7-4-8.4-6.1-14-6.1c-3.3,0-6.3,0.8-9.1,2.3h0l0,0c-3.1,1.6-5.5,4-7.2,6.9
				c-1,1.8-1.7,3.6-2.1,5.4c-0.4,1.9-0.6,4.4-0.6,7.6v34.8h4.2v-26c1.6,2,3.4,3.6,5.5,4.8c2.8,1.6,5.9,2.4,9.5,2.4
				c4.9,0,9.1-1.6,12.7-4.8c4.1-3.7,6.3-8.6,6.2-14.3C178.3,47.2,176.6,42.8,173.2,39.2z M149.5,63.4c-3.4-3-5-6.7-5-11.5
				c0-3.6,1.2-6.7,3.6-9.5l0,0c3.1-3.6,6.7-5.3,11.2-5.3c3.7,0.1,6.9,1.3,9.6,3.6c3.5,3.1,5.2,6.8,5.2,11.4c0,3.9-1.3,7.2-3.8,10
				c-3,3.3-6.6,4.9-11,4.9C155.6,67.1,152.4,65.9,149.5,63.4L149.5,63.4z"/>
		</g>
		<g>
			<polygon class="st0" points="210.1,64.8 210.1,64.8 210.1,64.8 			"/>
			<path class="st0" d="M212.1,33.9h-4.2v20.3c0,2.2-0.1,3.9-0.4,5.1l0,0l0,0c-0.2,1.2-0.7,2.3-1.3,3.4c-0.8,1.4-1.9,2.5-3.3,3.3
				c-1.4,0.8-2.9,1.2-4.6,1.2c-1.8,0-3.3-0.4-4.8-1.3c-1.4-0.9-2.6-2-3.4-3.5l0,0c-0.6-1.1-1-2.1-1.1-3.2c-0.2-1.1-0.3-2.8-0.3-5.1
				V33.9h-4.2v0.8V54c0,3.8,0.4,6.7,1.1,8.8c0.8,2.1,2.1,4,4.1,5.6l0,0l0,0c2.5,2,5.4,3,8.5,3c2.4,0,4.7-0.6,6.9-1.8h0l0,0
				c2.1-1.2,3.7-2.8,4.9-4.8c1.4-2.4,2.1-5.8,2.1-10.1V33.9z"/>
		</g>
		<path class="st0" d="M299.2,38v-4.1h-9.9V21.6h-4.2v12.3h-6V38h6v17.5c0,0.3,0,0.7,0,1c0,4.6,1,8.1,3.3,10.5
			c2.2,2.4,5.6,3.6,9.8,3.6h0.1l0.8,0v-4.1l-0.8,0c-3.5-0.1-5.8-1-7-2.6c-1.3-1.5-2-4.4-2-8.6V38H299.2z"/>
		<path class="st0" d="M336.6,48.1L336.6,48.1c-0.8-4.2-2.9-7.7-6.1-10.5c-3.6-3-7.8-4.6-12.4-4.6c-4.7,0-8.9,1.5-12.5,4.6l0,0
			c-4.3,3.7-6.6,8.6-6.5,14.5c0,4.9,1.6,9.2,4.8,12.8l0,0c3.7,4.2,8.5,6.3,14.1,6.3c3.5,0,6.7-0.8,9.5-2.4c2.1-1.2,3.9-2.8,5.4-4.8
			v6.5h4.2V55.3C337.1,52.2,336.9,49.8,336.6,48.1z M318.2,37.2c3.9,0.1,7.1,1.4,9.9,4.1l0,0l0,0c3.1,2.9,4.7,6.6,4.7,11.2
			c0,3.8-1.3,7-3.9,9.9l0,0c-3,3.3-6.6,4.8-10.9,4.9c-3.7,0-6.9-1.2-9.7-3.7c-3.4-3-5.1-6.7-5.1-11.2c0-4,1.3-7.4,4.1-10.3
			C310.4,38.7,313.9,37.2,318.2,37.2z"/>
		<g>
			<polygon class="st0" points="223.7,65.3 223.7,65.3 223.7,65.3 			"/>
			<path class="st0" d="M256.2,47.7L256.2,47.7L256.2,47.7c-1.1-3.9-3-7.1-5.7-9.6c-3.6-3.3-8-5-12.9-5c-3.4,0-6.6,0.9-9.6,2.6
				c-2.7,1.5-4.8,3.6-6.5,6.3c-2,3.1-3,6.6-3,10.3c0,5,1.8,9.4,5.2,13.1c1.9,2.1,4.1,2.8,5.6,2.8c0.5,0,0.9-0.1,1.3-0.2
				c0.2-0.1,0.4-0.2,0.5-0.4c0.2-0.2,0.3-0.5,0.3-0.8c0-0.4-0.2-0.7-0.4-0.9c-0.2-0.2-0.4-0.4-0.7-0.6l0,0l0,0
				c-2.2-1.2-4-2.9-5.4-5.1c-1.2-1.9-1.8-3.9-2.1-6.1h29.8c0.7,0,1.4,0,1.9-0.1c0.5-0.1,0.9-0.1,1.3-0.4h0l0,0
				c0.4-0.2,0.6-0.6,0.8-1c0.1-0.4,0.2-0.8,0.2-1.3C256.7,50.2,256.5,49.1,256.2,47.7z M252.3,49.9h-29.4c0.5-3.5,2-6.4,4.6-8.8
				c2.9-2.6,6.2-3.9,10-3.9c2.6,0,5.1,0.7,7.4,2l0,0c2.7,1.5,4.7,3.7,6.1,6.5l0,0v0C251.7,46.9,252.1,48.3,252.3,49.9z"/>
		</g>
	</g>
</g>
<g>
	<path class="st1" d="M415.1,67.6v4.2H390V34.8h24.6V39h-19.9v12H412v3.9h-17.3v12.7H415.1z"/>
	<path class="st1" d="M443,42.6c-0.4-0.5-1-1-1.7-1.4c-0.7-0.5-1.5-0.9-2.3-1.2c-0.9-0.4-1.8-0.7-2.8-0.9s-2.1-0.3-3.2-0.3
		c-2.9,0-5,0.5-6.3,1.6c-1.3,1.1-2,2.5-2,4.4c0,1,0.2,1.8,0.6,2.5c0.4,0.7,1,1.2,1.8,1.7s1.8,0.9,3,1.2c1.2,0.3,2.7,0.7,4.3,1.1
		c1.9,0.4,3.6,0.9,5.2,1.4c1.5,0.5,2.9,1.2,4,2s1.9,1.8,2.5,2.9c0.6,1.1,0.9,2.5,0.9,4.2c0,1.8-0.3,3.3-1,4.6
		c-0.7,1.3-1.6,2.4-2.8,3.2c-1.2,0.9-2.6,1.5-4.2,1.9c-1.6,0.4-3.4,0.6-5.3,0.6c-2.8,0-5.5-0.4-8.1-1.3c-2.5-0.9-4.9-2.2-6.9-3.9
		l2.2-4c0.6,0.6,1.3,1.2,2.2,1.8c0.9,0.6,1.9,1.1,3,1.6c1.1,0.5,2.3,0.8,3.6,1.1c1.3,0.3,2.7,0.4,4.1,0.4c2.6,0,4.7-0.5,6.1-1.4
		c1.5-0.9,2.2-2.3,2.2-4.2c0-1-0.2-1.9-0.7-2.6c-0.5-0.7-1.2-1.3-2.1-1.8c-0.9-0.5-2-1-3.4-1.4c-1.3-0.4-2.9-0.8-4.5-1.2
		c-1.9-0.5-3.5-0.9-4.9-1.5c-1.4-0.5-2.6-1.1-3.6-1.9c-1-0.7-1.7-1.6-2.2-2.7s-0.7-2.3-0.7-3.7c0-1.8,0.3-3.3,1-4.7
		c0.7-1.4,1.6-2.5,2.8-3.4c1.2-0.9,2.6-1.6,4.2-2.1c1.6-0.5,3.4-0.7,5.3-0.7c2.5,0,4.7,0.4,6.8,1.1c2,0.8,3.8,1.8,5.4,3.1L443,42.6z
		"/>
	<path class="st1" d="M479.4,39h-12.7v32.8H462V39h-12.7v-4.2h30.2V39z"/>
	<path class="st1" d="M499.9,67.8c2.1,0,3.9-0.4,5.4-1.2c1.4-0.8,2.6-1.9,3.4-3.2c0.8-1.3,1.4-2.9,1.8-4.6c0.3-1.7,0.5-3.5,0.5-5.2
		V34.8h4.7v18.7c0,2.5-0.3,4.9-0.9,7.1c-0.6,2.2-1.5,4.2-2.7,5.9c-1.2,1.7-2.9,3-4.9,4c-2,1-4.4,1.5-7.3,1.5c-2.9,0-5.4-0.5-7.4-1.6
		c-2-1-3.6-2.4-4.9-4.1c-1.2-1.7-2.1-3.7-2.7-5.9c-0.5-2.2-0.8-4.5-0.8-6.9V34.8h4.7v18.7c0,1.8,0.2,3.6,0.5,5.3s1,3.2,1.8,4.5
		c0.8,1.3,2,2.4,3.4,3.2C496,67.4,497.7,67.8,499.9,67.8z"/>
	<path class="st1" d="M523.9,71.7V34.8h12.8c2.9,0,5.5,0.5,7.8,1.5c2.2,1,4.1,2.3,5.6,4c1.5,1.7,2.6,3.6,3.4,5.8s1.1,4.6,1.1,7.2
		c0,2.8-0.4,5.3-1.2,7.6s-2,4.2-3.6,5.8c-1.6,1.6-3.4,2.9-5.6,3.7c-2.2,0.9-4.7,1.3-7.4,1.3H523.9z M549.8,53.2c0-2.1-0.3-4-0.9-5.7
		c-0.6-1.8-1.4-3.2-2.5-4.5c-1.1-1.2-2.5-2.2-4.1-2.9c-1.6-0.7-3.5-1.1-5.6-1.1h-8.1v28.6h8.1c2.1,0,4-0.4,5.6-1.1
		c1.6-0.7,3-1.7,4.1-3s1.9-2.8,2.5-4.6C549.5,57.2,549.8,55.3,549.8,53.2z"/>
	<path class="st1" d="M561.2,71.7V34.9h4.7v36.9H561.2z"/>
	<path class="st1" d="M589.8,72c-2.6,0-5-0.5-7.1-1.6c-2.1-1.1-4-2.5-5.5-4.2c-1.5-1.8-2.7-3.8-3.5-6c-0.8-2.3-1.2-4.6-1.2-6.9
		c0-2.5,0.4-4.8,1.3-7.1c0.9-2.3,2.1-4.2,3.7-6s3.4-3.1,5.5-4.1c2.1-1,4.4-1.5,6.9-1.5c2.6,0,5,0.5,7.1,1.6s3.9,2.5,5.5,4.3
		s2.7,3.8,3.5,6s1.2,4.5,1.2,6.8c0,2.5-0.4,4.8-1.3,7.1c-0.9,2.3-2.1,4.2-3.6,6c-1.5,1.7-3.4,3.1-5.5,4.1
		C594.6,71.5,592.3,72,589.8,72z M577.2,53.3c0,1.9,0.3,3.7,0.9,5.4c0.6,1.8,1.5,3.3,2.6,4.7c1.1,1.4,2.4,2.4,4,3.2
		c1.6,0.8,3.3,1.2,5.2,1.2c2,0,3.7-0.4,5.3-1.3c1.6-0.8,2.9-2,4-3.3s1.9-2.9,2.5-4.7s0.9-3.5,0.9-5.3c0-1.9-0.3-3.7-0.9-5.4
		c-0.6-1.8-1.5-3.3-2.6-4.6c-1.1-1.3-2.5-2.4-4-3.2c-1.5-0.8-3.2-1.2-5.1-1.2c-2,0-3.7,0.4-5.3,1.2s-2.9,1.9-4,3.3
		c-1.1,1.4-1.9,2.9-2.5,4.6C577.5,49.7,577.2,51.5,577.2,53.3z"/>
</g>
<g>
	<path class="st1" d="M366.7,91.6v-78h7v2h-5v74h5v2H366.7z"/>
</g>
<g>
	<path class="st1" d="M621.8,91.6v-2h5v-74h-5v-2h7v78H621.8z"/>
</g>
</svg>
